<?xml version="1.0" encoding="UTF-8"?>
<!DOCTYPE svg PUBLIC "-//W3C//DTD SVG 1.1//EN" "http://www.w3.org/Graphics/SVG/1.1/DTD/svg11.dtd">
<!-- Creator: CorelDRAW -->
<svg xmlns="http://www.w3.org/2000/svg" xml:space="preserve" width="94.4179mm" height="94.6846mm" version="1.1" style="shape-rendering:geometricPrecision; text-rendering:geometricPrecision; image-rendering:optimizeQuality; fill-rule:evenodd; clip-rule:evenodd"
viewBox="0 0 9431.25 9457.89"
 xmlns:xlink="http://www.w3.org/1999/xlink"
 xmlns:xodm="http://www.corel.com/coreldraw/odm/2003">
 <defs>
  <style type="text/css">
   <![CDATA[
    .fil0 {fill:#36A4DD}
   ]]>
  </style>
 </defs>
 <g id="Layer_x0020_1">
  <metadata id="CorelCorpID_0Corel-Layer"/>
  <path class="fil0" d="M4462.53 3756.5c89.22,-43.74 151.85,-177.71 243.65,-215.93 92.67,35.05 197.52,219.99 292.37,259.26 112.15,-50.5 600.06,-678.3 1656.75,-690.88 559.53,-6.66 1097.63,194.31 1509.82,537.34 765.26,636.87 1090.84,1769.36 628.9,2759.1 -108.47,232.41 -189.35,351.07 -340.4,536.82 -35.62,43.8 -122.97,113.04 -134.45,175.34 20.65,52.84 232.62,264.67 285.36,283.16 59.39,-24.11 266.9,-292.22 318.58,-366.74 787.23,-1135.01 636.05,-2602.35 -289.54,-3527.09 -826.16,-825.42 -1997.78,-1057.47 -3082.59,-587.88 -189.77,82.15 -479.96,256.73 -638.7,396.57 -39.11,34.45 -172.36,164.24 -193.93,163.54 -101.36,-3.29 -654.46,-815.33 -11.13,-1452.8 360.54,-357.26 889.05,-401.47 1323.79,-107.8 48,32.42 114.09,107.64 149.21,117.83 41.62,-17.02 233.8,-210.66 249.63,-254.66 -41.54,-86.24 -282.1,-246.49 -400.58,-300.43 -940.07,-428.03 -2016.79,246.66 -1998.37,1287.21 3.8,214 48.33,418.57 127.46,584.35 59.55,124.73 214.19,353.78 304.15,403.69zm1449.7 961.22c90.64,-15.78 270.48,-289.16 730.72,-303.77 781.81,-24.83 1379.47,836.42 866.37,1620.42 -129.67,198.13 -196.74,91.42 78.92,369.79 64.05,64.68 78.78,37.36 124.77,-19.83 33.18,-41.26 59.83,-66.83 93.09,-114.06 713.56,-1014 -78.31,-2407 -1380.37,-2210.04 -249.24,37.71 -540.49,185.89 -696.43,340.54 -33.57,33.3 -83.29,59.88 -32.06,116.69 38.62,42.81 171.86,180.59 214.99,200.27zm-1715.03 718.67c-17.3,-56.47 -85.2,-105.81 -125.04,-145.65 -250.06,-250.09 -59.05,-66.97 -630.36,209.94 -185.5,89.9 -423.49,150.36 -672.57,155.02 -1157.98,21.64 -2017.25,-1194.53 -1498.96,-2316.58 64.36,-139.31 144.25,-262.48 243.82,-375.97 31.1,-35.45 74.74,-68.23 90.75,-121.58 -20.01,-52.28 -207.92,-239.33 -260.99,-263.05 -78.79,-2.49 -366.37,453.12 -428.11,590.01 -367.2,814.18 -185.34,1714.43 397.7,2286.1 577.21,565.94 1498.67,789.25 2282.59,407.46 148.23,-72.19 526.14,-290.59 601.17,-425.69zm-1391.47 2413.48c-48.41,14.46 -253.08,218.27 -269.22,266.63 3.56,64.4 416.84,345.63 548.58,402.79 261.94,113.65 453.55,186.16 756.76,205.38 1062.51,67.34 1995.92,-686.92 2142.35,-1679.54 95.76,-649.14 -100.3,-1240.31 -447.44,-1647.45 -158.96,-186.41 -138.13,-168.03 -246.47,-59.39 -315.07,315.92 -116.89,53.53 187.22,703.76 234.47,501.32 168.03,1053.13 -103.38,1523.62 -223.92,388.13 -684.32,687.2 -1158.05,754.55 -305.59,43.44 -564.58,-0.95 -824.07,-94 -332.73,-119.31 -522.01,-347.4 -586.27,-376.34zm1218.24 -3647.66c40.74,-21.87 239.65,-218.36 260.21,-264.24 1.35,-21.7 -143.77,-185.99 -176.8,-229.42 -477.78,-628.11 -390.46,-1536.19 156.14,-2101.48 589.4,-609.56 1606.58,-647.78 2223.42,-95.55 25.42,22.75 82.9,80.04 119.7,95.73 50.4,-18.41 247.61,-218.63 270.01,-264.11 -47.9,-112.75 -438.56,-354.79 -589.55,-423.96 -1408.69,-645.31 -2924.24,422.23 -2885.26,1861.48 11.09,409.46 144.94,841.45 382.16,1153.89 50.43,66.44 178.94,246.3 239.98,267.67zm1474.06 89.47c110.02,-55.5 440.88,-478.91 1169.5,-483.37 921.88,-5.63 1660.24,750.35 1638.98,1664.64 -7.82,336.63 -123.13,671.64 -311.99,924.9 -207.86,278.72 -242.68,177.72 -58.08,364.45 42.05,42.53 85.02,106.4 144.24,129.59 145.1,-66.7 374.28,-486.02 449.39,-640.79 116.6,-240.31 183.76,-602.12 168.37,-910.54 -33.38,-669.21 -372.88,-1166.24 -721.98,-1456.8 -660.98,-550.15 -1687.95,-649.77 -2444.65,-119.38 -395.53,277.24 -326.61,258.64 -185.78,398.69 40.26,40.04 94.2,113.8 152,128.62zm114.91 742.7l141.53 157.78c804.79,942.57 723.84,2322.23 -118.99,3159.24 -854.44,848.55 -2183.9,925.94 -3157.35,129.25l-159.7 -147.24c-46.58,23.66 -273.34,250.16 -290.86,294.75 45.18,111.78 420.68,369.38 565.71,456.28 769.45,461.1 1698.96,479.08 2504.27,142.65 1424.89,-595.27 2098.46,-2396.65 1303.52,-3852.6 -94.61,-173.3 -228.05,-364.66 -347.91,-493.14 -31.65,-33.93 -64.94,-80.48 -99.25,-108.95 -63.99,-53.08 -94.9,1.76 -130.87,38.82 -49.55,51.04 -182.5,165.71 -210.1,223.15zm-3575.42 -1766.45c-24.11,-47.33 -202.26,-229.45 -255.1,-247.85 -94.47,54.52 -238.99,272.72 -301.57,408.05 -534.68,1156.37 618.42,2395.08 1846.25,1873.33 121.45,-51.61 384.92,-220.52 422.06,-303.63 -20.69,-89.63 -186.61,-173.94 -228.15,-268.01 -4.11,-49.28 247.75,-254.6 277.2,-292.37 -15.7,-47.71 -102.33,-127.51 -134.12,-164 -813.26,-933.27 -729.42,-2320.23 112.83,-3165.18 848.71,-851.44 2226.42,-928.75 3159.84,-131.8 40.07,34.2 125.47,118.68 169.34,140.31 48.28,-30.28 274.9,-255.57 289.3,-297.49 -49.45,-68.39 -174.76,-163.99 -247.37,-224.58 -78.67,-65.68 -180.73,-135.67 -279.65,-195.48 -195.51,-118.21 -413.88,-215.66 -659.04,-291.05 -517.4,-159.12 -1164.37,-137.83 -1658.2,31.95 -1815.84,624.27 -2420.69,2789.58 -1347.5,4240.65 62.72,84.81 144.78,192.17 215.77,259.19 59.18,55.86 136.09,82.86 -113.93,248.64 -680.55,451.28 -1665.17,-95.41 -1574.65,-962.55 45.91,-439.81 276.59,-574.82 306.71,-658.12zm695.12 3509.52c1314.95,0 1880.67,-799.44 1985.72,-781.58 71.47,34.77 164.76,196.64 206.92,293.08 234.97,537.5 -14.09,1115.87 -522.74,1354.29 -348.54,163.37 -761.44,96.81 -1057.81,-138.78 -130.47,-103.71 -64.92,-151.28 -239,22.73 -28.99,28.97 -108.83,99.1 -126.39,138.57 19.92,69.82 204.97,194.27 280.61,240.66 104.99,64.39 235.91,118.27 370.89,154.51 558.14,149.88 1169.27,-79.44 1482.97,-523.61 300,-424.76 365.11,-951.51 141.53,-1431.49 -85.98,-184.6 -187.86,-287.01 -290.52,-414.47 -90.2,26.34 -164.39,182.84 -258.65,220.57 -86.2,-30.92 -210.91,-234.14 -292.37,-251.36 -53.87,39.09 -108.05,96.72 -151.85,135.68 -402.38,357.85 -972.12,555.28 -1529.31,555.28 -1509.03,0 -2594.81,-1432.16 -2247.84,-2880.97 89.82,-375.02 282.51,-727.34 531.04,-1005.87 38.14,-42.74 81.82,-60.53 87.21,-134.79 -29.25,-51.32 -233.61,-244.35 -283.04,-269.87 -57.89,31.9 -195.04,207.78 -243.5,270.08 -75.14,96.61 -137.82,193.26 -206.58,304.69 -450.93,730.67 -481.36,1757.1 -136.34,2511.08 225.2,492.15 556.65,876.66 928.55,1130.13 402.18,274.1 933.45,501.44 1570.5,501.44z"/>
 </g>
</svg>
