<?xml version="1.0" encoding="UTF-8"?>
<!DOCTYPE svg PUBLIC "-//W3C//DTD SVG 1.1//EN" "http://www.w3.org/Graphics/SVG/1.1/DTD/svg11.dtd">
<!-- Creator: CorelDRAW -->
<svg xmlns="http://www.w3.org/2000/svg" xml:space="preserve" width="213.264mm" height="57.3527mm" version="1.1" style="shape-rendering:geometricPrecision; text-rendering:geometricPrecision; image-rendering:optimizeQuality; fill-rule:evenodd; clip-rule:evenodd"
viewBox="0 0 3171.24 852.84"
 xmlns:xlink="http://www.w3.org/1999/xlink"
 xmlns:xodm="http://www.corel.com/coreldraw/odm/2003">
 <defs>
  <style type="text/css">
   <![CDATA[
    .str0 {stroke:#FEFEFE;stroke-width:17.84;stroke-miterlimit:22.9256}
    .fil2 {fill:none}
    .fil1 {fill:#FEFEFE;fill-rule:nonzero}
    .fil0 {fill:#36A4DD}
   ]]>
  </style>
    <mask id="id0">
  <linearGradient id="id1" gradientUnits="userSpaceOnUse" x1="2821.09" y1="636.24" x2="3118.88" y2="636.23">
   <stop offset="0" style="stop-opacity:1; stop-color:white"/>
   <stop offset="1" style="stop-opacity:0; stop-color:white"/>
  </linearGradient>
     <rect style="fill:url(#id1)" x="2803.4" y="585.77" width="376.77" height="93.37"/>
    </mask>
    <mask id="id2">
  <linearGradient id="id3" gradientUnits="userSpaceOnUse" x1="1300.63" y1="636.24" x2="1002.84" y2="636.23">
   <stop offset="0" style="stop-opacity:1; stop-color:white"/>
   <stop offset="1" style="stop-opacity:0; stop-color:white"/>
  </linearGradient>
     <rect style="fill:url(#id3)" x="941.55" y="585.77" width="376.77" height="93.37"/>
    </mask>
 </defs>
 <g id="Layer_x0020_1">
  <metadata id="CorelCorpID_0Corel-Layer"/>
  <g id="_1310981814080">
   <path class="fil0" d="M402.39 338.73c8.04,-3.94 13.69,-16.02 21.97,-19.47 8.36,3.16 17.81,19.84 26.36,23.38 10.11,-4.55 54.11,-61.16 149.39,-62.3 50.46,-0.6 98.98,17.52 136.14,48.45 69.01,57.43 98.36,159.55 56.71,248.79 -9.78,20.96 -17.08,31.66 -30.7,48.41 -3.21,3.95 -11.09,10.19 -12.12,15.81 1.86,4.77 20.98,23.87 25.73,25.53 5.35,-2.18 24.07,-26.35 28.73,-33.07 70.99,-102.35 57.35,-234.66 -26.11,-318.04 -74.5,-74.43 -180.14,-95.35 -277.96,-53.01 -17.11,7.41 -43.28,23.15 -57.59,35.76 -3.53,3.11 -15.54,14.81 -17.49,14.75 -9.14,-0.3 -59.01,-73.52 -1,-131 32.51,-32.21 80.17,-36.2 119.37,-9.72 4.33,2.92 10.29,9.71 13.45,10.62 3.75,-1.53 21.08,-19 22.51,-22.96 -3.75,-7.78 -25.44,-22.23 -36.12,-27.09 -84.77,-38.6 -181.86,22.24 -180.2,116.07 0.34,19.3 4.36,37.74 11.49,52.69 5.37,11.25 19.31,31.9 27.43,36.4zm130.72 86.68c8.17,-1.42 24.39,-26.07 65.89,-27.39 70.5,-2.24 124.39,75.42 78.12,146.12 -11.69,17.87 -17.74,8.24 7.12,33.34 5.78,5.83 7.1,3.37 11.25,-1.79 2.99,-3.72 5.4,-6.03 8.39,-10.29 64.34,-91.43 -7.06,-217.04 -124.47,-199.28 -22.47,3.4 -48.74,16.76 -62.8,30.71 -3.03,3 -7.51,5.4 -2.89,10.52 3.48,3.86 15.5,16.28 19.39,18.06zm-154.65 64.8c-1.56,-5.09 -7.68,-9.54 -11.27,-13.13 -22.55,-22.55 -5.32,-6.04 -56.84,18.93 -16.73,8.11 -38.19,13.56 -60.65,13.98 -104.42,1.95 -181.9,-107.71 -135.16,-208.89 5.8,-12.56 13.01,-23.67 21.99,-33.9 2.8,-3.2 6.74,-6.15 8.18,-10.96 -1.8,-4.72 -18.75,-21.58 -23.53,-23.72 -7.1,-0.22 -33.04,40.86 -38.6,53.2 -33.11,73.42 -16.71,154.59 35.86,206.14 52.05,51.03 135.14,71.17 205.82,36.74 13.37,-6.51 47.44,-26.2 54.21,-38.39zm-125.47 217.63c-4.37,1.3 -22.82,19.68 -24.28,24.04 0.32,5.81 37.59,31.17 49.47,36.32 23.62,10.25 40.9,16.79 68.24,18.52 95.81,6.07 179.98,-61.94 193.18,-151.45 8.64,-58.54 -9.04,-111.84 -40.35,-148.55 -14.33,-16.81 -12.45,-15.15 -22.22,-5.36 -28.41,28.49 -10.54,4.83 16.88,63.46 21.14,45.2 15.15,94.96 -9.32,137.39 -20.19,35 -61.71,61.97 -104.42,68.04 -27.56,3.92 -50.91,-0.09 -74.31,-8.48 -30,-10.76 -47.07,-31.33 -52.86,-33.93zm109.85 -328.92c3.67,-1.97 21.61,-19.69 23.46,-23.83 0.12,-1.96 -12.96,-16.77 -15.94,-20.69 -43.08,-56.64 -35.21,-138.52 14.08,-189.49 53.15,-54.96 144.87,-58.41 200.49,-8.62 2.29,2.05 7.48,7.22 10.79,8.63 4.54,-1.66 22.33,-19.71 24.35,-23.82 -4.32,-10.17 -39.55,-31.99 -53.16,-38.23 -127.02,-58.19 -263.68,38.07 -260.17,167.85 1,36.92 13.07,75.88 34.46,104.05 4.55,5.99 16.14,22.21 21.64,24.14zm132.92 8.07c9.92,-5 39.76,-43.18 105.46,-43.59 83.13,-0.51 149.71,67.66 147.79,150.1 -0.7,30.36 -11.1,60.56 -28.13,83.4 -18.74,25.13 -21.88,16.03 -5.24,32.86 3.79,3.84 7.67,9.6 13.01,11.69 13.08,-6.01 33.75,-43.82 40.52,-57.78 10.51,-21.67 16.57,-54.29 15.18,-82.11 -3.01,-60.34 -33.62,-105.16 -65.1,-131.36 -59.6,-49.61 -152.21,-58.59 -220.44,-10.76 -35.66,25 -29.45,23.32 -16.75,35.95 3.63,3.61 8.49,10.26 13.71,11.6zm10.36 66.97l12.76 14.23c72.57,84.99 65.27,209.4 -10.73,284.88 -77.05,76.52 -196.93,83.49 -284.7,11.65l-14.4 -13.28c-4.2,2.13 -24.65,22.56 -26.23,26.58 4.07,10.08 37.93,33.31 51.01,41.14 69.38,41.58 153.2,43.2 225.81,12.86 128.48,-53.68 189.22,-216.11 117.54,-347.4 -8.53,-15.63 -20.56,-32.88 -31.37,-44.47 -2.86,-3.06 -5.86,-7.26 -8.95,-9.82 -5.77,-4.79 -8.56,0.16 -11.8,3.5 -4.47,4.6 -16.46,14.94 -18.94,20.12zm-322.4 -159.28c-2.17,-4.27 -18.24,-20.69 -23,-22.35 -8.52,4.92 -21.55,24.59 -27.19,36.8 -48.21,104.27 55.77,215.97 166.48,168.92 10.95,-4.65 34.71,-19.88 38.06,-27.38 -1.86,-8.08 -16.83,-15.68 -20.57,-24.17 -0.37,-4.44 22.34,-22.96 25,-26.36 -1.42,-4.3 -9.23,-11.5 -12.09,-14.79 -73.33,-84.15 -65.77,-209.22 10.17,-285.41 76.53,-76.78 200.76,-83.75 284.93,-11.89 3.61,3.09 11.31,10.7 15.27,12.65 4.35,-2.73 24.79,-23.04 26.09,-26.82 -4.46,-6.17 -15.76,-14.79 -22.31,-20.25 -7.09,-5.92 -16.3,-12.23 -25.22,-17.63 -17.63,-10.66 -37.32,-19.45 -59.43,-26.24 -46.66,-14.35 -104.99,-12.43 -149.52,2.88 -163.74,56.29 -218.28,251.54 -121.51,382.39 5.66,7.65 13.05,17.33 19.46,23.37 5.34,5.04 12.27,7.47 -10.27,22.42 -61.37,40.69 -150.15,-8.6 -141.99,-86.79 4.14,-39.66 24.94,-51.83 27.66,-59.34zm62.68 316.46c118.57,0 169.58,-72.09 179.06,-70.47 6.44,3.13 14.86,17.73 18.66,26.43 21.19,48.47 -1.27,100.62 -47.14,122.12 -31.43,14.73 -68.66,8.73 -95.38,-12.51 -11.77,-9.35 -5.85,-13.64 -21.55,2.05 -2.61,2.61 -9.81,8.94 -11.4,12.5 1.79,6.29 18.48,17.52 25.3,21.7 9.47,5.81 21.27,10.66 33.44,13.93 50.33,13.51 105.44,-7.16 133.72,-47.22 27.05,-38.3 32.92,-85.8 12.76,-129.08 -7.75,-16.65 -16.94,-25.88 -26.2,-37.37 -8.13,2.38 -14.82,16.49 -23.32,19.89 -7.77,-2.79 -19.02,-21.11 -26.36,-22.66 -4.86,3.52 -9.74,8.72 -13.69,12.23 -36.28,32.27 -87.66,50.07 -137.9,50.07 -136.07,0 -233.98,-129.14 -202.69,-259.78 8.1,-33.82 25.47,-65.58 47.88,-90.7 3.44,-3.85 7.38,-5.46 7.86,-12.15 -2.64,-4.63 -21.06,-22.03 -25.52,-24.33 -5.22,2.88 -17.59,18.74 -21.96,24.35 -6.78,8.71 -12.43,17.43 -18.63,27.47 -40.66,65.89 -43.41,158.44 -12.29,226.43 20.31,44.38 50.19,79.05 83.73,101.91 36.27,24.72 84.17,45.22 141.61,45.22z"/>
   <path class="fil1" d="M1059.83 518.62c-31.38,0 -62.77,-5.23 -94.15,-15.69 -10.14,-2.94 -15.2,-9.48 -15.2,-19.62 0,-2.62 0.49,-5.39 1.47,-8.34 3.27,-9.48 9.81,-14.22 19.62,-14.22 3.92,0 7.19,0.65 9.81,1.96 27.46,9.15 53.62,13.73 78.46,13.73 22.56,0 40.38,-5.39 53.45,-16.18 13.08,-10.79 19.62,-25.34 19.62,-43.64 0,-12.75 -4.82,-23.54 -14.47,-32.36 -9.64,-8.83 -29.18,-16.84 -58.6,-24.03 -37.59,-8.83 -64.89,-20.92 -81.89,-36.29 -17,-15.37 -25.5,-36.61 -25.5,-63.75 0,-28.77 10.05,-51.41 30.16,-67.92 20.11,-16.51 47.65,-24.76 82.63,-24.76 29.42,0 56.39,4.09 80.91,12.26 10.13,3.27 15.2,9.81 15.2,19.62 0,2.62 -0.49,5.39 -1.47,8.34 -3.6,9.81 -10.14,14.71 -19.62,14.71 -3.6,0 -6.87,-0.65 -9.81,-1.96 -20.59,-7.19 -42.34,-10.79 -65.22,-10.79 -44.46,0 -66.69,16.84 -66.69,50.51 0,13.08 5.56,24.11 16.67,33.1 11.12,8.99 29.75,16.43 55.9,22.31 35.63,8.5 62.52,20.43 80.67,35.8 18.14,15.37 27.22,37.11 27.22,65.22 0,29.42 -10.95,53.62 -32.86,72.58 -21.9,19.62 -50.67,29.42 -86.31,29.42zm365.14 -315.8l87.29 288.34c0.98,2.62 1.47,4.9 1.47,6.87 0,5.88 -2.12,10.54 -6.37,13.97 -4.25,3.43 -9.81,5.15 -16.67,5.15 -12.1,0 -19.94,-5.23 -23.54,-15.69l-26.48 -88.27 -126.52 0 -26.97 88.27c-3.6,10.46 -11.44,15.69 -23.54,15.69 -6.54,0 -11.93,-1.72 -16.18,-5.15 -4.25,-3.43 -6.37,-8.09 -6.37,-13.97l0.98 -6.87 87.78 -288.34c6.21,-22.56 22.07,-33.84 47.57,-33.84 12.42,0 22.64,3.1 30.65,9.32 8.01,6.21 13.65,14.38 16.92,24.52zm-98.08 168.2l101.02 0 -48.06 -156.92c-0.33,-1.96 -1.14,-2.94 -2.45,-2.94 -0.98,0 -1.96,0.98 -2.94,2.94l-47.57 156.92zm483.32 146.13c-22.56,0 -37.92,-9.97 -46.1,-29.91l-113.28 -273.63c-0.65,-1.63 -1.63,-2.45 -2.94,-2.45 -1.63,0 -2.45,1.31 -2.45,3.92l0 282.95c0,5.56 -2.21,10.13 -6.62,13.73 -4.41,3.6 -9.89,5.39 -16.43,5.39 -6.54,0 -12.01,-1.8 -16.43,-5.39 -4.41,-3.6 -6.62,-8.17 -6.62,-13.73l0 -282.46c0,-13.08 4.41,-24.11 13.24,-33.1 8.83,-8.99 20.59,-13.49 35.31,-13.49 22.23,0 37.6,9.97 46.1,29.91l113.28 273.63c0.65,1.63 1.64,2.45 2.94,2.45 1.63,0 2.45,-1.14 2.45,-3.43l0 -283.44c0,-5.56 2.12,-10.05 6.37,-13.49 4.25,-3.43 9.81,-5.15 16.67,-5.15 6.87,0 12.42,1.72 16.67,5.15 4.25,3.43 6.37,7.93 6.37,13.49l0 282.46c0,13.08 -4.41,24.11 -13.24,33.1 -8.83,8.99 -20.6,13.49 -35.31,13.49zm306.79 -160.35l97.1 127.01c2.94,3.92 4.41,8.34 4.41,13.24 0,5.56 -1.96,10.3 -5.88,14.22 -3.92,3.92 -9.64,5.88 -17.16,5.88 -9.48,0 -16.67,-3.27 -21.58,-9.81l-100.04 -131.42c-5.56,-6.87 -10.46,-11.52 -14.71,-13.98 -4.25,-2.45 -9.15,-3.68 -14.71,-3.68l-21.58 0 0 139.76c0,5.56 -2.21,10.13 -6.62,13.73 -4.41,3.6 -9.89,5.39 -16.43,5.39 -6.54,0 -12.01,-1.8 -16.43,-5.39 -4.41,-3.6 -6.62,-8.17 -6.62,-13.73l0 -309.92c0,-5.56 2.21,-10.13 6.62,-13.73 4.41,-3.6 9.89,-5.39 16.43,-5.39 6.54,0 12.01,1.8 16.43,5.39 4.41,3.6 6.62,8.17 6.62,13.73l0 127.99 21.58 0c10.79,0 20.59,-5.56 29.42,-16.67l92.68 -120.14c5.23,-6.87 11.93,-10.3 20.1,-10.3 7.85,0 13.89,2.04 18.14,6.13 4.25,4.09 6.37,9.07 6.37,14.96 0,4.9 -1.31,8.99 -3.92,12.26l-88.27 114.75c-6.87,8.17 -14.88,14.87 -24.03,20.11 9.15,5.56 16.51,12.1 22.07,19.62zm337.68 -153.98l87.29 288.34c0.98,2.62 1.47,4.9 1.47,6.87 0,5.88 -2.12,10.54 -6.37,13.97 -4.25,3.43 -9.81,5.15 -16.67,5.15 -12.1,0 -19.94,-5.23 -23.54,-15.69l-26.48 -88.27 -126.52 0 -26.97 88.27c-3.6,10.46 -11.44,15.69 -23.54,15.69 -6.54,0 -11.93,-1.72 -16.18,-5.15 -4.25,-3.43 -6.37,-8.09 -6.37,-13.97l0.98 -6.87 87.78 -288.34c6.21,-22.56 22.07,-33.84 47.57,-33.84 12.42,0 22.64,3.1 30.65,9.32 8.01,6.21 13.65,14.38 16.92,24.52zm-98.08 168.2l101.02 0 -48.06 -156.92c-0.33,-1.96 -1.14,-2.94 -2.45,-2.94 -0.98,0 -1.96,0.98 -2.94,2.94l-47.57 156.92zm480.38 144.17l-145.64 0c-17.33,0 -32.04,-5.56 -44.13,-16.67 -12.1,-11.12 -18.14,-24.52 -18.14,-40.21l0 -270.2c0,-5.56 2.21,-10.13 6.62,-13.73 4.41,-3.6 9.89,-5.39 16.43,-5.39 6.54,0 12.01,1.8 16.43,5.39 4.41,3.6 6.62,8.17 6.62,13.73l0 270.2c0,4.25 1.55,7.77 4.66,10.54 3.11,2.78 6.95,4.17 11.52,4.17l145.64 0c6.54,0 11.69,1.96 15.45,5.89 3.76,3.92 5.64,8.99 5.64,15.2 0,6.21 -1.88,11.28 -5.64,15.2 -3.76,3.92 -8.91,5.88 -15.45,5.88zm158.69 -344.24l70.61 0c33.02,0 58.76,8.75 77.23,26.24 18.47,17.49 27.71,40.29 27.71,68.41 0,28.44 -9.15,51.41 -27.46,68.9 -18.31,17.49 -44.13,26.24 -77.48,26.24l-85.32 0 0 137.31c0,5.56 -2.21,10.13 -6.62,13.73 -4.41,3.6 -9.89,5.39 -16.43,5.39 -6.54,0 -12.01,-1.8 -16.43,-5.39 -4.41,-3.6 -6.62,-8.17 -6.62,-13.73l0 -267.75c0,-16.02 5.31,-29.91 15.94,-41.68 10.63,-11.77 25.58,-17.65 44.87,-17.65zm-14.71 147.6l85.32 0c17.65,0 31.88,-4.33 42.66,-12.99 10.79,-8.66 16.18,-21.99 16.18,-39.96 0,-17.65 -5.39,-30.81 -16.18,-39.48 -10.79,-8.66 -25.01,-12.99 -42.66,-12.99l-70.12 0c-10.14,0 -15.2,5.39 -15.2,16.18l0 89.25z"/>
   <path class="fil1" d="M1453.91 592.05l0 97.98 -19.09 0 0 -97.98 -55.04 0 0 -17.18 129.16 0 0 17.18 -55.04 0zm155.21 97.98l0 -115.16 116.12 0 0 17.18 -97.03 0 0 29.75 67.44 0 0 17.18 -67.44 0 0 33.88 101.48 0 0 17.18 -120.57 0zm332.24 0l-46.45 -46.45 -46.29 46.45 -24.81 0 58.69 -58.38 -56.63 -56.79 24.82 0 44.38 44.86 44.22 -44.86 24.81 0 -56.63 56.79 58.69 58.38 -24.82 0zm181.13 -97.98l0 97.98 -19.09 0 0 -97.98 -55.04 0 0 -17.18 129.16 0 0 17.18 -55.04 0zm155.21 97.98l0 -115.16 19.09 0 0 115.16 -19.09 0zm136.28 0l0 -115 19.09 0 0 97.82 88.92 0 0 17.18 -108.01 0zm207.38 0l0 -115.16 116.12 0 0 17.18 -97.03 0 0 29.75 67.44 0 0 17.18 -67.44 0 0 33.88 101.48 0 0 17.18 -120.57 0z"/>
   <path class="fil2 str0" style="mask:url(#id0)" d="M2812.32 632.45l358.93 0m-358.93 37.76l358.93 0m-358.93 -75.52l358.93 0"/>
   <path class="fil2 str0" style="mask:url(#id2)" d="M1309.4 632.45l-358.93 0m358.93 37.76l-358.93 0m358.93 -75.52l-358.93 0"/>
  </g>
 </g>
</svg>
